<svg width="150" height="28" viewBox="0 0 150 28" fill="none" xmlns="http://www.w3.org/2000/svg">
<path d="M145.038 23.4004C143.13 23.4004 141.506 22.7709 140.168 21.5119L141.738 19.1463C142.785 20.0607 143.878 20.518 145.018 20.518C145.8 20.518 146.191 20.286 146.191 19.8222C146.191 19.5704 145.992 19.365 145.595 19.2059C145.581 19.2059 145.555 19.1993 145.515 19.1861C145.475 19.1728 145.422 19.1596 145.356 19.1463C145.29 19.1198 145.21 19.0933 145.118 19.0668C145.025 19.027 144.912 18.9873 144.78 18.9475C144.66 18.9077 144.528 18.8614 144.382 18.8084C143.534 18.5035 143.03 18.318 142.871 18.2517C141.506 17.6156 140.824 16.6216 140.824 15.2699C140.824 14.2362 141.235 13.4012 142.056 12.7651C142.865 12.1157 143.965 11.791 145.356 11.791C146.907 11.791 148.272 12.2681 149.451 13.2223L147.94 15.5283C147.013 14.9054 146.131 14.594 145.297 14.594C145.018 14.594 144.78 14.6536 144.581 14.7729C144.395 14.8922 144.303 15.0379 144.303 15.2102C144.303 15.5548 144.634 15.8199 145.297 16.0054C146.383 16.3102 147.245 16.6283 147.881 16.9596C149.127 17.5692 149.749 18.4969 149.749 19.7427C149.749 20.8161 149.325 21.6975 148.477 22.3866C147.629 23.0625 146.483 23.4004 145.038 23.4004Z" fill="black"/>
<path d="M137.025 11.1551C136.442 11.1551 135.959 10.9629 135.574 10.5786C135.19 10.1943 134.998 9.71056 134.998 9.12744C134.998 8.55757 135.19 8.0871 135.574 7.71602C135.972 7.33169 136.455 7.13953 137.025 7.13953C137.595 7.13953 138.072 7.33169 138.457 7.71602C138.841 8.0871 139.033 8.55757 139.033 9.12744C139.033 9.71056 138.841 10.1943 138.457 10.5786C138.072 10.9629 137.595 11.1551 137.025 11.1551ZM138.795 12.1292V23.1025H135.276V12.1292H138.795Z" fill="black"/>
<path d="M133.084 19.6837L134.018 22.4866C132.997 23.083 131.831 23.3812 130.519 23.3812C127.802 23.3812 126.444 21.8704 126.444 18.8487V15.0319H124.774V12.1296H126.484V8.23328H129.963V12.1296H133.402V15.0319H129.963V18.4313C129.963 19.5975 130.426 20.1806 131.354 20.1806C131.884 20.1806 132.461 20.015 133.084 19.6837Z" fill="black"/>
<path d="M115.904 23.1025H112.405V12.1292H115.825V13.6599C116.103 13.1298 116.554 12.6925 117.176 12.3479C117.799 12.0033 118.495 11.8311 119.264 11.8311C120.443 11.8311 121.444 12.222 122.265 13.0039C123.087 13.7858 123.498 14.9057 123.498 16.3635V23.1025H119.979V17.2978C119.979 16.5822 119.807 16.0256 119.462 15.628C119.118 15.2304 118.647 15.0316 118.051 15.0316C117.415 15.0316 116.898 15.2503 116.501 15.6876C116.103 16.1117 115.904 16.6816 115.904 17.3972V23.1025Z" fill="black"/>
<path d="M106.888 13.1231V12.1291H110.188V23.1024H106.888V22.1482C105.987 22.9699 104.907 23.3807 103.648 23.3807C102.097 23.3807 100.812 22.8241 99.7911 21.7109C98.7839 20.6109 98.2803 19.2326 98.2803 17.576C98.2803 15.9062 98.7839 14.5411 99.7911 13.4809C100.798 12.3942 102.084 11.8508 103.648 11.8508C104.92 11.8508 106 12.2749 106.888 13.1231ZM106.848 17.5959C106.848 16.8935 106.603 16.2971 106.113 15.8068C105.609 15.3032 105.006 15.0514 104.304 15.0514C103.575 15.0514 102.972 15.3032 102.495 15.8068C102.018 16.2971 101.779 16.8935 101.779 17.5959C101.779 18.3248 102.018 18.9344 102.495 19.4248C102.998 19.9284 103.601 20.1802 104.304 20.1802C105.006 20.1802 105.609 19.9284 106.113 19.4248C106.603 18.9344 106.848 18.3248 106.848 17.5959Z" fill="black"/>
<path d="M96.5686 7.93481V23.1026H93.0698V7.93481H96.5686Z" fill="black"/>
<path d="M85.9835 11.8508C87.5474 11.8508 88.8329 12.4074 89.8401 13.5207C90.8473 14.6074 91.3509 15.9658 91.3509 17.5959C91.3509 19.1995 90.8407 20.5712 89.8202 21.7109C88.813 22.8241 87.5407 23.3807 86.0034 23.3807C84.7842 23.3807 83.7438 22.9832 82.8824 22.188V27.615H79.3638V12.1291H82.8227V13.143C83.6842 12.2815 84.7378 11.8508 85.9835 11.8508ZM87.7726 17.6357C87.7726 16.92 87.5407 16.3236 87.0769 15.8465C86.613 15.3562 86.0233 15.111 85.3076 15.111C84.592 15.111 83.9956 15.3562 83.5185 15.8465C83.0547 16.3236 82.8227 16.92 82.8227 17.6357C82.8227 18.3248 83.0547 18.9212 83.5185 19.4248C83.9956 19.9151 84.592 20.1603 85.3076 20.1603C86.0365 20.1603 86.6263 19.9151 87.0769 19.4248C87.5407 18.9212 87.7726 18.3248 87.7726 17.6357Z" fill="black"/>
<path d="M72.278 11.8508C73.8418 11.8508 75.1273 12.4074 76.1345 13.5207C77.1417 14.6074 77.6453 15.9658 77.6453 17.5959C77.6453 19.1995 77.1351 20.5712 76.1146 21.7109C75.1074 22.8241 73.8352 23.3807 72.2978 23.3807C71.0786 23.3807 70.0382 22.9832 69.1768 22.188V27.615H65.6582V12.1291H69.1172V13.143C69.9786 12.2815 71.0322 11.8508 72.278 11.8508ZM74.0671 17.6357C74.0671 16.92 73.8352 16.3236 73.3713 15.8465C72.9075 15.3562 72.3177 15.111 71.6021 15.111C70.8864 15.111 70.29 15.3562 69.8129 15.8465C69.3491 16.3236 69.1172 16.92 69.1172 17.6357C69.1172 18.3248 69.3491 18.9212 69.8129 19.4248C70.29 19.9151 70.8864 20.1603 71.6021 20.1603C72.331 20.1603 72.9207 19.9151 73.3713 19.4248C73.8352 18.9212 74.0671 18.3248 74.0671 17.6357Z" fill="black"/>
<path d="M64.4675 23.1027H60.6507L59.7959 20.419H55.1243L54.2496 23.1027H50.413L55.7803 8.41199H59.2393L64.4675 23.1027ZM56.0586 17.1986H58.9014L57.5098 12.845L56.0586 17.1986Z" fill="black"/>
<path d="M13.4828 15.4819C17.7475 15.4819 21.204 18.9384 21.204 23.2031H28.8348C28.8348 16.2795 23.222 10.6667 16.2985 10.6667C9.37487 10.6667 3.76208 16.2795 3.76208 23.2031H5.76152C5.76152 18.9384 9.218 15.4819 13.4828 15.4819Z" fill="url(#paint0_linear_52_444)"/>
<path d="M2.10845 23.2032C2.10845 13.5835 9.90679 5.78521 19.5264 5.78521C29.1461 5.78521 36.9444 13.5835 36.9444 23.2032H45.6388C45.6361 10.6003 35.4209 0.385132 22.8181 0.385132C10.2152 0.385132 0 10.6003 0 23.2032H2.10845Z" fill="url(#paint1_linear_52_444)"/>
<defs>
<linearGradient id="paint0_linear_52_444" x1="28.8348" y1="16.5446" x2="3.76208" y2="16.5446" gradientUnits="userSpaceOnUse">
<stop stop-color="#FFCE0B"/>
<stop offset="1" stop-color="#FB2DC5"/>
</linearGradient>
<linearGradient id="paint1_linear_52_444" x1="45.6388" y1="19.3399" x2="1.01021e-06" y2="18.9545" gradientUnits="userSpaceOnUse">
<stop stop-color="#7519FB"/>
<stop offset="1" stop-color="#43D5FF"/>
</linearGradient>
</defs>
</svg>
