<svg width="43" height="44" viewBox="0 0 43 44" fill="none" xmlns="http://www.w3.org/2000/svg">
<path d="M1.65869 12.3767C1.65869 8.72687 1.65869 6.90195 2.369 5.5079C2.9938 4.28165 3.99076 3.28469 5.21701 2.65989C6.61105 1.94959 8.43597 1.94958 12.0858 1.94958H30.3333C33.9832 1.94958 35.8079 1.94959 37.2021 2.65989C38.4284 3.28469 39.4253 4.28165 40.05 5.5079C40.7604 6.90195 40.7604 8.72687 40.7604 12.3767V24.1072C40.7604 27.7571 40.7604 29.5819 40.05 30.9761C39.4253 32.2024 38.4284 33.1992 37.2021 33.824C35.8079 34.5343 33.9832 34.5343 30.3333 34.5343H24.8671C23.5115 34.5343 22.8338 34.5343 22.1853 34.6675C21.6101 34.7855 21.0536 34.9807 20.5307 35.2479C19.9413 35.549 19.4119 35.9724 18.3534 36.8192L13.1714 40.9648C12.2676 41.688 11.8156 42.0495 11.4353 42.0499C11.1045 42.0503 10.7916 41.8998 10.5852 41.6413C10.348 41.3441 10.348 40.7654 10.348 39.6078V34.5343C8.32777 34.5343 7.31766 34.5343 6.48892 34.3123C4.23999 33.7097 2.48335 31.953 1.88075 29.7042C1.65869 28.8754 1.65869 27.8653 1.65869 25.8451V12.3767Z" stroke="url(#paint0_linear_58_3999)" stroke-width="2.60602" stroke-linecap="round" stroke-linejoin="round"/>
<path fill-rule="evenodd" clip-rule="evenodd" d="M21.2028 12.158C19.2483 9.90125 15.9892 9.29419 13.5404 11.3607C11.0916 13.4271 10.7468 16.8822 12.6699 19.3263C13.8613 20.8404 16.8516 23.6057 18.9546 25.4911C19.7271 26.1834 20.1131 26.5297 20.5767 26.6691C20.9745 26.7888 21.4313 26.7888 21.8288 26.6691C22.2924 26.5297 22.6786 26.1834 23.4511 25.4911C25.5539 23.6057 28.5443 20.8404 29.7356 19.3263C31.6588 16.8822 31.3562 13.4054 28.8652 11.3607C26.3744 9.31594 23.1572 9.90125 21.2028 12.158Z" stroke="url(#paint1_linear_58_3999)" stroke-width="2.60602" stroke-linecap="round" stroke-linejoin="round"/>
<defs>
<linearGradient id="paint0_linear_58_3999" x1="21.2095" y1="1.94958" x2="21.2095" y2="42.0499" gradientUnits="userSpaceOnUse">
<stop stop-color="#4CB0FA"/>
<stop offset="0.495" stop-color="#7721FF"/>
<stop offset="1" stop-color="#E90CE9"/>
</linearGradient>
<linearGradient id="paint1_linear_58_3999" x1="21.2095" y1="10.0959" x2="21.2095" y2="26.7589" gradientUnits="userSpaceOnUse">
<stop stop-color="#4CB0FA"/>
<stop offset="0.495" stop-color="#7721FF"/>
<stop offset="1" stop-color="#E90CE9"/>
</linearGradient>
</defs>
</svg>
