<svg width="43" height="38" viewBox="0 0 43 38" fill="none" xmlns="http://www.w3.org/2000/svg">
<path d="M21.3824 36.6041L21.1866 36.3105C19.828 34.2725 19.1487 33.2534 18.2511 32.5156C17.4564 31.8625 16.5408 31.3725 15.5567 31.0736C14.4449 30.736 13.2202 30.736 10.7707 30.736H8.08152C5.89057 30.736 4.7951 30.736 3.95828 30.3096C3.22217 29.9346 2.6237 29.3361 2.24866 28.6001C1.82227 27.7633 1.82227 26.6677 1.82227 24.4768V7.65501C1.82227 5.46405 1.82227 4.36859 2.24866 3.53176C2.6237 2.79565 3.22217 2.19719 3.95828 1.82214C4.7951 1.39575 5.89057 1.39575 8.08152 1.39575H8.86393C13.2458 1.39575 15.4368 1.39575 17.1104 2.24852C18.5826 2.99865 19.7795 4.19558 20.5296 5.66777C21.3824 7.34142 21.3824 9.53238 21.3824 13.9143M21.3824 36.6041V13.9143M21.3824 36.6041L21.5782 36.3105C22.9369 34.2725 23.6162 33.2534 24.5138 32.5156C25.3084 31.8625 26.224 31.3725 27.2083 31.0736C28.3199 30.736 29.5447 30.736 31.9942 30.736H34.6834C36.8743 30.736 37.9699 30.736 38.8067 30.3096C39.5427 29.9346 40.1412 29.3361 40.5162 28.6001C40.9426 27.7633 40.9426 26.6677 40.9426 24.4768V7.65501C40.9426 5.46405 40.9426 4.36859 40.5162 3.53176C40.1412 2.79565 39.5427 2.19719 38.8067 1.82214C37.9699 1.39575 36.8743 1.39575 34.6834 1.39575H33.901C29.5191 1.39575 27.3282 1.39575 25.6544 2.24852C24.1823 2.99865 22.9854 4.19558 22.2353 5.66777C21.3824 7.34142 21.3824 9.53238 21.3824 13.9143" stroke="url(#paint0_linear_58_3949)" stroke-width="2.72823" stroke-linecap="round" stroke-linejoin="round"/>
<defs>
<linearGradient id="paint0_linear_58_3949" x1="21.3824" y1="1.39575" x2="21.3824" y2="36.6041" gradientUnits="userSpaceOnUse">
<stop stop-color="#4CB0FA"/>
<stop offset="0.495" stop-color="#7721FF"/>
<stop offset="1" stop-color="#E90CE9"/>
</linearGradient>
</defs>
</svg>
