<svg width="36" height="46" viewBox="0 0 36 46" fill="none" xmlns="http://www.w3.org/2000/svg">
<path fill-rule="evenodd" clip-rule="evenodd" d="M14.4929 0.220398C12.2238 0.220398 10.3844 2.05983 10.3844 4.32889V23.3004L7.72198 21.1696L7.72185 21.1695C6.80633 20.437 5.62542 20.1223 4.4668 20.3022C3.30819 20.482 2.27822 21.1399 1.62783 22.1154L2.65624 22.801L1.62714 22.1165C0.692647 23.5213 0.692647 25.3497 1.62714 26.7545C1.6535 26.7941 1.68212 26.8322 1.71287 26.8685L10.98 37.8156V44.544C10.98 45.2266 11.5333 45.78 12.2159 45.78C12.8986 45.78 13.4519 45.2266 13.4519 44.544V37.3627C13.4519 37.0703 13.3482 36.7873 13.1593 36.5642L3.65197 25.3332C3.30302 24.7655 3.314 24.0443 3.68489 23.4862C3.95096 23.0874 4.37216 22.8184 4.84596 22.7449C5.31986 22.6713 5.80287 22.8 6.17736 23.0996L6.1775 23.0997L10.8481 26.8377C11.219 27.1346 11.7274 27.1925 12.1557 26.9868C12.584 26.781 12.8564 26.3479 12.8564 25.8727V4.32889C12.8564 3.42506 13.5891 2.69237 14.4929 2.69237C15.3967 2.69237 16.1294 3.42506 16.1294 4.32889V17.2552C16.1294 17.2664 16.1296 17.2776 16.1298 17.2888V23.0002C16.1298 25.2693 17.9693 27.1087 20.2383 27.1087C21.3564 27.1087 22.3701 26.6622 23.1108 25.9377C23.8516 26.6622 24.8653 27.1087 25.9833 27.1087C28.2524 27.1087 30.0918 25.2693 30.0918 23.0002V17.2552C30.0918 17.2311 30.0916 17.207 30.0912 17.1829V10.0739C30.0912 9.17006 30.8239 8.43736 31.7277 8.43736C32.6316 8.43736 33.3643 9.17006 33.3643 10.0739V30.1814L33.3645 30.2073C33.4137 32.5564 32.5064 34.8246 30.8508 36.4917C30.6208 36.7233 30.4917 37.0364 30.4917 37.3627V44.544C30.4917 45.2266 31.0451 45.78 31.7277 45.78C32.4103 45.78 32.9637 45.2266 32.9637 44.544V37.8548C34.8606 35.757 35.8923 33.0093 35.8362 30.1689V10.0739C35.8362 7.80483 33.9968 5.96539 31.7277 5.96539C29.4587 5.96539 27.6192 7.80483 27.6192 10.0739V13.4853C27.118 13.2675 26.5648 13.1467 25.9833 13.1467C24.8653 13.1467 23.8516 13.5933 23.1108 14.3178C22.3701 13.5933 21.3564 13.1467 20.2383 13.1467C19.6565 13.1467 19.1029 13.2677 18.6014 13.4858V4.32889C18.6014 2.05983 16.7619 0.220398 14.4929 0.220398ZM24.3468 23.0073C24.3468 23.005 24.3468 23.0026 24.3468 23.0002V17.2552C24.3468 17.2529 24.3468 17.2505 24.3468 17.2481C24.3506 16.3476 25.0819 15.6187 25.9833 15.6187C26.8719 15.6187 27.5951 16.3269 27.6192 17.2096V17.2552C27.6192 17.2684 27.6194 17.2816 27.6199 17.2948V23.0002C27.6199 23.9041 26.8872 24.6368 25.9833 24.6368C25.0819 24.6368 24.3506 23.9079 24.3468 23.0073ZM21.8748 17.2481C21.871 16.3476 21.1398 15.6187 20.2383 15.6187C19.3345 15.6187 18.6018 16.3514 18.6018 17.2552V23.0002C18.6018 23.9041 19.3345 24.6368 20.2383 24.6368C21.1398 24.6368 21.871 23.9079 21.8748 23.0073C21.8748 23.005 21.8748 23.0026 21.8748 23.0002V17.2552C21.8748 17.2529 21.8748 17.2505 21.8748 17.2481Z" fill="url(#paint0_linear_58_3961)"/>
<defs>
<linearGradient id="paint0_linear_58_3961" x1="18.3823" y1="0.220398" x2="18.3823" y2="45.78" gradientUnits="userSpaceOnUse">
<stop stop-color="#4CB0FA"/>
<stop offset="0.495" stop-color="#7721FF"/>
<stop offset="1" stop-color="#E90CE9"/>
</linearGradient>
</defs>
</svg>
