<svg width="44" height="36" viewBox="0 0 44 36" fill="none" xmlns="http://www.w3.org/2000/svg">
<path d="M9.5396 15.9749V24.0758M33.8422 11.9244V20.0253M31.817 1.79834C36.7762 1.79834 39.4584 2.55731 40.793 3.146C40.9708 3.2244 41.0597 3.26361 41.3161 3.50837C41.4698 3.6551 41.7505 4.0856 41.8226 4.28549C41.9431 4.61894 41.9431 4.80121 41.9431 5.16575V26.9335C41.9431 28.7741 41.9431 29.6943 41.6671 30.1674C41.3864 30.6484 41.1156 30.8722 40.5901 31.0571C40.0736 31.2388 39.0308 31.0385 36.9453 30.6377C35.4855 30.3574 33.7541 30.1514 31.817 30.1514C25.7414 30.1514 19.6657 34.2019 11.5648 34.2019C6.60564 34.2019 3.9234 33.4428 2.5888 32.8543C2.41107 32.7757 2.3222 32.7366 2.06573 32.4918C1.91199 32.3451 1.63136 31.9146 1.55916 31.7147C1.43872 31.3813 1.43872 31.1991 1.43872 30.8345V9.06655C1.43872 7.22611 1.43872 6.30587 1.71472 5.83286C1.99545 5.35171 2.26621 5.12804 2.79169 4.94312C3.30828 4.76134 4.35105 4.96169 6.43662 5.36242C7.89638 5.6429 9.62766 5.84878 11.5648 5.84878C17.6405 5.84878 23.7161 1.79834 31.817 1.79834ZM26.754 18.0001C26.754 20.7963 24.4871 23.0631 21.6909 23.0631C18.8947 23.0631 16.6279 20.7963 16.6279 18.0001C16.6279 15.2039 18.8947 12.937 21.6909 12.937C24.4871 12.937 26.754 15.2039 26.754 18.0001Z" stroke="url(#paint0_linear_58_3995)" stroke-width="2.57824" stroke-linecap="round" stroke-linejoin="round"/>
<defs>
<linearGradient id="paint0_linear_58_3995" x1="21.6909" y1="1.79834" x2="21.6909" y2="34.2019" gradientUnits="userSpaceOnUse">
<stop stop-color="#4CB0FA"/>
<stop offset="0.495" stop-color="#7721FF"/>
<stop offset="1" stop-color="#E90CE9"/>
</linearGradient>
</defs>
</svg>
