<svg width="36" height="50" viewBox="0 0 36 50" fill="none" xmlns="http://www.w3.org/2000/svg">
<path fill-rule="evenodd" clip-rule="evenodd" d="M3.66149 17.146V23.43C3.66149 24.4259 4.46881 25.2332 5.46469 25.2332C6.46058 25.2332 7.2679 24.4259 7.2679 23.43L7.26803 23.4111V20.2866C7.26803 17.8108 9.27503 15.8038 11.7508 15.8038C14.2265 15.8038 16.2335 17.8108 16.2335 20.2866V23.4296V23.4299H16.2337C16.2337 24.4258 17.041 25.2331 18.0369 25.2331C19.0233 25.2331 19.8247 24.4411 19.8399 23.4583C19.8397 23.4488 19.8396 23.4392 19.8396 23.4296V20.2866C19.8396 17.8108 21.8466 15.8038 24.3223 15.8038C26.7981 15.8038 28.8051 17.8108 28.8051 20.2866V23.4296V23.43H28.8053C28.8053 24.4259 29.6127 25.2332 30.6085 25.2332C31.6044 25.2332 32.4118 24.4259 32.4118 23.43V17.146C32.3876 9.2165 25.9659 2.79417 18.0366 2.76891C10.1073 2.79417 3.68568 9.2165 3.66149 17.146ZM9.22026 25.8786C9.6764 25.1804 9.94311 24.3472 9.9474 23.452L9.94758 23.4296V20.2866C9.94758 19.2907 10.7549 18.4834 11.7508 18.4834C12.7467 18.4834 13.554 19.2907 13.554 20.2866V23.4296L13.5542 23.4519C13.566 25.9175 15.5685 27.9127 18.0369 27.9127C20.5126 27.9127 22.5196 25.9057 22.5196 23.4299C22.5196 23.4173 22.5195 23.4047 22.5191 23.3921V20.2866C22.5191 19.2907 23.3264 18.4834 24.3223 18.4834C25.3182 18.4834 26.1255 19.2907 26.1255 20.2866V23.4296C26.1255 23.4357 26.1256 23.4419 26.1257 23.4481C26.1257 23.4524 26.1258 23.4567 26.1259 23.4611C26.1319 24.353 26.3985 25.1831 26.8533 25.8791L19.6845 46.1603C19.3956 46.8103 18.7504 47.2309 18.0369 47.2309C17.3234 47.2309 16.6782 46.8103 16.3892 46.1603L9.22026 25.8786ZM7.00167 27.6423C6.52228 27.8173 6.00463 27.9128 5.46469 27.9128C2.98893 27.9128 0.981934 25.9058 0.981934 23.43V17.144L0.981939 17.1401C1.00941 7.73465 8.62723 0.116824 18.0327 0.0893555L18.0366 1.42913L18.0405 0.0893555C27.446 0.116824 35.0638 7.73465 35.0913 17.1401L35.0913 17.144L35.0913 23.43C35.0913 25.9058 33.0843 27.9128 30.6085 27.9128C30.0688 27.9128 29.5513 27.8174 29.072 27.6425L22.1958 47.0961C22.1869 47.1211 22.1773 47.1459 22.167 47.1704C21.4663 48.831 19.8392 49.9104 18.0369 49.9104C16.2345 49.9104 14.6075 48.831 13.9068 47.1704C13.8964 47.1459 13.8868 47.1211 13.878 47.0961L7.00167 27.6423Z" fill="url(#paint0_linear_58_3969)"/>
<defs>
<linearGradient id="paint0_linear_58_3969" x1="18.0366" y1="0.0893555" x2="18.0366" y2="49.9106" gradientUnits="userSpaceOnUse">
<stop stop-color="#4CB0FA"/>
<stop offset="0.495" stop-color="#7721FF"/>
<stop offset="1" stop-color="#E90CE9"/>
</linearGradient>
</defs>
</svg>
