<svg width="51" height="38" viewBox="0 0 51 38" fill="none" xmlns="http://www.w3.org/2000/svg">
<path d="M11.171 16.5801H20.851M16.011 11.7401V21.4201M32.951 19.0001H32.9752M40.211 14.1601H40.2352M21.9373 2.06012H29.4444C35.7966 2.06012 38.9729 2.06012 41.4657 3.2639C43.6607 4.32378 45.4844 6.02187 46.698 8.13574C48.0764 10.5366 48.3027 13.7047 48.7553 20.0407L49.3506 28.3764C49.6427 32.4635 46.4057 35.9401 42.3079 35.9401C40.2124 35.9401 38.2254 35.0094 36.884 33.3996L35.976 32.3101C35.1457 31.3135 34.7302 30.8153 34.2575 30.4126C33.2663 29.5687 32.0665 29.0065 30.7836 28.7856C30.1716 28.6801 29.523 28.6801 28.2257 28.6801H23.1563C21.8589 28.6801 21.2104 28.6801 20.5984 28.7856C19.3155 29.0065 18.1156 29.5687 17.1244 30.4126C16.6516 30.8153 16.2364 31.3135 15.406 32.3101L14.4981 33.3996C13.1566 35.0094 11.1694 35.9401 9.07395 35.9401C4.97636 35.9401 1.7393 32.4635 2.03125 28.3764L2.62666 20.0407C3.07923 13.7047 3.30552 10.5366 4.68385 8.13574C5.89743 6.02187 7.72112 4.32378 9.91611 3.2639C12.4091 2.06012 15.5852 2.06012 21.9373 2.06012Z" stroke="url(#paint0_linear_58_4009)" stroke-width="2.8405" stroke-linecap="round" stroke-linejoin="round"/>
<defs>
<linearGradient id="paint0_linear_58_4009" x1="25.6909" y1="2.06012" x2="25.6909" y2="35.9401" gradientUnits="userSpaceOnUse">
<stop stop-color="#4CB0FA"/>
<stop offset="0.495" stop-color="#7721FF"/>
<stop offset="1" stop-color="#E90CE9"/>
</linearGradient>
</defs>
</svg>
