<svg width="48" height="42" viewBox="0 0 48 42" fill="none" xmlns="http://www.w3.org/2000/svg">
<path d="M31.6167 20.2617H29.4016L26.0789 26.907L21.6487 13.6164L18.326 20.2617H16.1109M23.8487 6.1643C19.4198 0.986665 12.0345 -0.40611 6.48553 4.33505C0.93656 9.07622 0.155356 17.0033 4.513 22.6106C7.80441 26.8459 17.1549 35.3489 21.5335 39.2561C22.3385 39.9742 22.741 40.3335 23.2121 40.4748C23.6212 40.5976 24.076 40.5976 24.4851 40.4748C24.9563 40.3335 25.3588 39.9742 26.1637 39.2561C30.5424 35.3489 39.8928 26.8459 43.1842 22.6106C47.5418 17.0033 46.856 9.02636 41.2117 4.33505C35.5674 -0.356226 28.2774 0.986665 23.8487 6.1643Z" stroke="url(#paint0_linear_58_4005)" stroke-width="2.57283" stroke-linecap="round" stroke-linejoin="round"/>
<defs>
<linearGradient id="paint0_linear_58_4005" x1="23.8638" y1="1.43323" x2="23.8638" y2="40.5669" gradientUnits="userSpaceOnUse">
<stop stop-color="#4CB0FA"/>
<stop offset="0.495" stop-color="#7721FF"/>
<stop offset="1" stop-color="#E90CE9"/>
</linearGradient>
</defs>
</svg>
