<svg width="38" height="38" viewBox="0 0 38 38" fill="none" xmlns="http://www.w3.org/2000/svg">
<path d="M19.0365 10.5324H11.4158C10.2929 10.5324 9.21605 10.0864 8.42207 9.29238C7.62809 8.4984 7.18204 7.42153 7.18204 6.29868C7.18204 5.17582 7.62809 4.09895 8.42207 3.30497C9.21605 2.51099 10.2929 2.06494 11.4158 2.06494C17.343 2.06494 19.0365 10.5324 19.0365 10.5324ZM19.0365 10.5324H26.6572C27.78 10.5324 28.8569 10.0864 29.651 9.29238C30.4449 8.4984 30.891 7.42153 30.891 6.29868C30.891 5.17582 30.4449 4.09895 29.651 3.30497C28.8569 2.51099 27.78 2.06494 26.6572 2.06494C20.73 2.06494 19.0365 10.5324 19.0365 10.5324ZM19.0365 10.5324V35.9348M2.10156 22.3869H35.9714M2.10156 15.9516V30.5156C2.10156 32.4125 2.10156 33.361 2.47073 34.0855C2.79544 34.7228 3.31358 35.241 3.95089 35.5656C4.6754 35.9348 5.62384 35.9348 7.52074 35.9348H30.5523C32.4491 35.9348 33.3977 35.9348 34.1221 35.5656C34.7594 35.241 35.2776 34.7228 35.6023 34.0855C35.9714 33.361 35.9714 32.4125 35.9714 30.5156V15.9516C35.9714 14.0547 35.9714 13.1062 35.6023 12.3817C35.2776 11.7444 34.7594 11.2263 34.1221 10.9016C33.3977 10.5324 32.4491 10.5324 30.5523 10.5324H7.52074C5.62386 10.5324 4.6754 10.5324 3.95089 10.9016C3.3136 11.2263 2.79544 11.7444 2.47073 12.3817C2.10156 13.1062 2.10156 14.0547 2.10156 15.9516Z" stroke="url(#paint0_linear_58_3953)" stroke-width="2.58494" stroke-linecap="round" stroke-linejoin="round"/>
<defs>
<linearGradient id="paint0_linear_58_3953" x1="19.0365" y1="2.06494" x2="19.0365" y2="35.9348" gradientUnits="userSpaceOnUse">
<stop stop-color="#4CB0FA"/>
<stop offset="0.495" stop-color="#7721FF"/>
<stop offset="1" stop-color="#E90CE9"/>
</linearGradient>
</defs>
</svg>
