<svg width="40" height="40" viewBox="0 0 40 40" fill="none" xmlns="http://www.w3.org/2000/svg">
<path fill-rule="evenodd" clip-rule="evenodd" d="M0.682617 20C0.682617 18.516 0.849628 17.0711 1.16588 15.6829C1.17069 15.6589 1.17615 15.6352 1.18224 15.6118C3.17008 7.03674 10.857 0.645996 20.0366 0.645996C30.5976 0.645996 39.1828 9.10483 39.3869 19.617C39.3876 19.634 39.3879 19.6512 39.3878 19.6683C39.3897 19.7786 39.3906 19.8892 39.3906 20C39.3906 26.6539 36.0328 32.5236 30.9192 36.0069C30.8186 36.1005 30.7025 36.1785 30.5741 36.2366C27.542 38.2084 23.9231 39.354 20.0366 39.354C19.9276 39.354 19.8189 39.3531 19.7103 39.3513C19.6895 39.3514 19.6687 39.3511 19.6479 39.3502C14.2393 39.2436 9.37467 36.9184 5.92656 33.2471C5.89855 33.2197 5.87189 33.1912 5.84662 33.1615C2.64199 29.708 0.682617 25.0828 0.682617 20ZM20.4352 36.776C23.4235 36.7063 26.2185 35.8555 28.6241 34.4199C27.6653 29.3158 25.732 25.1583 23.3187 21.7811C19.256 25.2135 17.32 31.1601 20.4352 36.776ZM21.7361 19.7512C17.0991 23.6143 14.7068 30.162 17.4754 36.5864C13.9289 36.0433 10.748 34.3899 8.29865 31.9921C9.7414 27.8896 12.7315 21.5086 18.46 16.4171C19.5913 17.4153 20.694 18.5231 21.7361 19.7512ZM25.446 20.3242C27.8528 23.7007 29.8196 27.804 30.9153 32.7772C34.4331 29.7792 36.6975 25.354 36.8127 20.3974C32.8865 18.2134 28.7526 18.5246 25.446 20.3242ZM36.623 17.4387C32.1402 15.5151 27.5414 16.121 23.8546 18.2668C22.7792 16.9828 21.6429 15.8203 20.4773 14.7689C23.7822 12.2927 27.864 10.2729 32.8904 9.21184C34.8216 11.5104 36.1476 14.3345 36.623 17.4387ZM3.25597 20C3.25597 19.0927 3.32799 18.2021 3.46661 17.3338C7.38135 17.5638 11.2459 16.2125 14.1732 13.552C14.252 13.4804 14.3298 13.4081 14.4068 13.335C15.0839 13.7785 15.7642 14.2552 16.4411 14.7675C11.0845 19.6519 8.03006 25.5444 6.38356 29.7585C4.41477 27.0088 3.25597 23.6397 3.25597 20ZM18.453 13.0709C17.6784 12.4664 16.8989 11.9066 16.1232 11.3885C17.8546 9.03309 18.85 6.19997 18.9581 3.25345C19.3147 3.23083 19.6743 3.21935 20.0366 3.21935C24.1039 3.21935 27.8333 4.66641 30.7379 7.07377C25.7926 8.3512 21.7491 10.505 18.453 13.0709ZM13.9312 10.0229C15.3381 8.17333 16.185 5.95058 16.3605 3.62326C13.5124 4.25979 10.9376 5.62026 8.83924 7.50144C10.3912 8.14821 12.1272 8.97588 13.9312 10.0229ZM4.08271 14.7832C7.00154 14.8418 9.85751 13.839 12.1066 11.9417C10.2535 10.9049 8.48324 10.1102 6.93842 9.50964C5.69145 11.0646 4.71564 12.8464 4.08271 14.7832Z" fill="url(#paint0_linear_58_3986)"/>
<defs>
<linearGradient id="paint0_linear_58_3986" x1="20.0366" y1="0.645996" x2="20.0366" y2="39.354" gradientUnits="userSpaceOnUse">
<stop stop-color="#4CB0FA"/>
<stop offset="0.495" stop-color="#7721FF"/>
<stop offset="1" stop-color="#E90CE9"/>
</linearGradient>
</defs>
</svg>
