<svg width="44" height="42" viewBox="0 0 44 42" fill="none" xmlns="http://www.w3.org/2000/svg">
<path d="M9.59721 9.79192L18.6676 18.8623M9.59721 9.79192H3.5503L1.53467 3.74501L3.5503 1.72937L9.59721 3.74501V9.79192ZM36.3225 3.22298L31.0263 8.5193C30.2281 9.31754 29.8288 9.71663 29.6794 10.1769C29.5478 10.5817 29.5478 11.0178 29.6794 11.4226C29.8288 11.8828 30.2281 12.2819 31.0263 13.0802L31.5044 13.5584C32.3026 14.3566 32.7019 14.7557 33.162 14.9053C33.5668 15.0368 34.0029 15.0368 34.4077 14.9053C34.8679 14.7557 35.2672 14.3566 36.0653 13.5584L41.0196 8.60414C41.5531 9.90253 41.8474 11.3246 41.8474 12.8154C41.8474 18.9381 36.8841 23.9014 30.7614 23.9014C30.0233 23.9014 29.3019 23.8292 28.6043 23.6915C27.6243 23.4984 27.1343 23.4017 26.8374 23.4313C26.5215 23.4628 26.3659 23.5101 26.0861 23.6599C25.8229 23.8008 25.559 24.0646 25.0309 24.5927L10.605 39.0186C8.93522 40.6884 6.22794 40.6884 4.55812 39.0186C2.88831 37.3489 2.88831 34.6415 4.55812 32.9717L18.984 18.5458C19.5121 18.0177 19.776 17.7538 19.9169 17.4906C20.0666 17.2108 20.114 17.0552 20.1454 16.7394C20.1751 16.4424 20.0783 15.9525 19.8852 14.9726C19.7476 14.2748 19.6754 13.5535 19.6754 12.8154C19.6754 6.69273 24.6387 1.72937 30.7614 1.72937C32.7881 1.72937 34.6879 2.27323 36.3225 3.22298ZM21.6912 27.9324L32.777 39.0184C34.4468 40.6882 37.1542 40.6882 38.8239 39.0184C40.4937 37.3487 40.4937 34.6413 38.8239 32.9715L29.7038 23.8516C29.0582 23.7905 28.4287 23.674 27.8202 23.5069C27.0359 23.2916 26.1756 23.4481 25.6008 24.0229L21.6912 27.9324Z" stroke="url(#paint0_linear_58_3978)" stroke-width="2.55987" stroke-linecap="round" stroke-linejoin="round"/>
<defs>
<linearGradient id="paint0_linear_58_3978" x1="21.691" y1="1.72937" x2="21.691" y2="40.271" gradientUnits="userSpaceOnUse">
<stop stop-color="#4CB0FA"/>
<stop offset="0.495" stop-color="#7721FF"/>
<stop offset="1" stop-color="#E90CE9"/>
</linearGradient>
</defs>
</svg>
