<svg width="47" height="44" viewBox="0 0 47 44" fill="none" xmlns="http://www.w3.org/2000/svg">
<path d="M10.7662 41.0393C13.399 42.236 16.7499 42.236 19.3828 41.0393C22.0157 39.8425 25.3666 39.8425 27.9994 41.0393C30.6323 42.236 33.9832 42.236 36.616 41.0393M23.6909 2.06342V6.41522M6.28369 23.8224H1.93188M11.319 11.4505L8.24179 8.37332M36.062 11.4505L39.1394 8.37332M45.45 23.8224H41.0981M12.8114 23.8224C12.8114 17.8139 17.6823 12.9429 23.6909 12.9429C29.6995 12.9429 34.5704 17.8139 34.5704 23.8224M2.14969 33.4236C4.78254 32.2269 8.13343 32.2269 10.7663 33.4236C13.3991 34.6204 16.75 34.6204 19.3828 33.4236C22.0157 32.2269 25.3666 32.2269 27.9994 33.4236C30.6323 34.6204 33.9832 34.6204 36.616 33.4236C39.2488 32.2269 42.5997 32.2269 45.2326 33.4236" stroke="url(#paint0_linear_58_3957)" stroke-width="2.74642" stroke-linecap="round" stroke-linejoin="round"/>
<defs>
<linearGradient id="paint0_linear_58_3957" x1="23.6909" y1="2.06342" x2="23.6909" y2="41.9368" gradientUnits="userSpaceOnUse">
<stop stop-color="#4CB0FA"/>
<stop offset="0.495" stop-color="#7721FF"/>
<stop offset="1" stop-color="#E90CE9"/>
</linearGradient>
</defs>
</svg>
